<svg width="20" height="20" viewBox="0 0 20 20" fill="none" xmlns="http://www.w3.org/2000/svg">
<path d="M1.25 10L0.793086 9.79695C0.735632 9.92623 0.735638 10.0738 0.793102 10.2031L1.25 10ZM18.75 10L19.2069 10.2031C19.2644 10.0738 19.2644 9.92623 19.2069 9.79695L18.75 10ZM10 3.87439C6.70869 3.87439 4.40083 5.36034 2.92768 6.83366C2.19254 7.56888 1.66228 8.30323 1.31515 8.85461C1.14134 9.1307 1.01273 9.36205 0.926703 9.52629C0.883673 9.60845 0.851243 9.67392 0.829092 9.71993C0.818015 9.74294 0.809503 9.76109 0.803517 9.77404C0.800524 9.78052 0.798161 9.78569 0.796424 9.78952C0.795556 9.79144 0.794844 9.79302 0.794288 9.79426C0.79401 9.79488 0.793771 9.79541 0.79357 9.79586C0.79347 9.79609 0.793349 9.79636 0.793299 9.79647C0.793188 9.79672 0.793086 9.79695 1.25 10C1.70691 10.2031 1.70683 10.2032 1.70676 10.2034C1.70675 10.2034 1.70668 10.2036 1.70666 10.2036C1.70661 10.2037 1.7066 10.2038 1.70663 10.2037C1.70668 10.2036 1.70689 10.2031 1.70725 10.2023C1.70796 10.2007 1.70928 10.1979 1.71121 10.1937C1.71506 10.1853 1.72135 10.1719 1.73011 10.1537C1.74763 10.1173 1.77502 10.0619 1.81256 9.99026C1.88766 9.84685 2.00319 9.6387 2.16141 9.38738C2.47834 8.88397 2.96371 8.21192 3.63482 7.54073C4.97417 6.20124 7.04131 4.87439 10 4.87439V3.87439ZM18.75 10C19.2069 9.79695 19.2068 9.79672 19.2067 9.79647C19.2067 9.79636 19.2065 9.79609 19.2064 9.79586C19.2062 9.79541 19.206 9.79488 19.2057 9.79426C19.2052 9.79302 19.2044 9.79144 19.2036 9.78952C19.2018 9.78569 19.1995 9.78052 19.1965 9.77404C19.1905 9.76109 19.182 9.74294 19.1709 9.71993C19.1488 9.67392 19.1163 9.60845 19.0733 9.52629C18.9873 9.36205 18.8587 9.1307 18.6848 8.85461C18.3377 8.30323 17.8075 7.56888 17.0723 6.83366C15.5992 5.36034 13.2913 3.87439 10 3.87439V4.87439C12.9587 4.87439 15.0258 6.20124 16.3652 7.54073C17.0363 8.21192 17.5217 8.88397 17.8386 9.38738C17.9968 9.6387 18.1123 9.84685 18.1874 9.99026C18.225 10.0619 18.2524 10.1173 18.2699 10.1537C18.2786 10.1719 18.2849 10.1853 18.2888 10.1937C18.2907 10.1979 18.292 10.2007 18.2928 10.2023C18.2931 10.2031 18.2933 10.2036 18.2934 10.2037C18.2934 10.2038 18.2934 10.2037 18.2933 10.2036C18.2933 10.2036 18.2933 10.2034 18.2932 10.2034C18.2932 10.2032 18.2931 10.2031 18.75 10ZM10 16.1244C13.2913 16.1244 15.5991 14.6388 17.0723 13.1658C17.8074 12.4307 18.3377 11.6965 18.6848 11.1452C18.8586 10.8692 18.9873 10.6379 19.0733 10.4737C19.1163 10.3916 19.1487 10.3261 19.1709 10.2801C19.182 10.2571 19.1905 10.2389 19.1965 10.226C19.1995 10.2195 19.2018 10.2143 19.2036 10.2105C19.2044 10.2086 19.2051 10.207 19.2057 10.2058C19.206 10.2052 19.2062 10.2046 19.2064 10.2042C19.2065 10.204 19.2066 10.2037 19.2067 10.2036C19.2068 10.2033 19.2069 10.2031 18.75 10C18.2931 9.79691 18.2932 9.79673 18.2933 9.79656C18.2933 9.79654 18.2933 9.79639 18.2934 9.79634C18.2934 9.79623 18.2934 9.79621 18.2934 9.79627C18.2933 9.79639 18.2931 9.79685 18.2928 9.79764C18.2921 9.79922 18.2907 9.80211 18.2888 9.80628C18.285 9.81461 18.2787 9.82805 18.2699 9.84624C18.2524 9.88262 18.225 9.938 18.1875 10.0096C18.1124 10.153 17.9968 10.3611 17.8386 10.6124C17.5217 11.1157 17.0363 11.7876 16.3652 12.4586C15.0259 13.7978 12.9587 15.1244 10 15.1244V16.1244ZM1.25 10C0.793102 10.2031 0.793204 10.2033 0.793316 10.2036C0.793365 10.2037 0.793487 10.204 0.793587 10.2042C0.793787 10.2046 0.794026 10.2052 0.794305 10.2058C0.794861 10.207 0.795573 10.2086 0.796441 10.2105C0.798178 10.2143 0.800541 10.2195 0.803534 10.226C0.809521 10.2389 0.818033 10.2571 0.82911 10.2801C0.851262 10.3261 0.883693 10.3916 0.926723 10.4737C1.01275 10.6379 1.14136 10.8692 1.31518 11.1452C1.66231 11.6965 2.19258 12.4307 2.92772 13.1658C4.40088 14.6388 6.70873 16.1244 10 16.1244V15.1244C7.04127 15.1244 4.97412 13.7978 3.63478 12.4586C2.96367 11.7876 2.47831 11.1157 2.16138 10.6124C2.00317 10.3611 1.88764 10.153 1.81253 10.0096C1.775 9.938 1.74762 9.88262 1.73009 9.84624C1.72133 9.82805 1.71505 9.81461 1.71119 9.80628C1.70926 9.80211 1.70794 9.79922 1.70723 9.79764C1.70687 9.79685 1.70667 9.79639 1.70661 9.79627C1.70658 9.79621 1.70659 9.79623 1.70664 9.79634C1.70667 9.79639 1.70673 9.79654 1.70674 9.79656C1.70681 9.79673 1.7069 9.79691 1.25 10ZM10 13.6251C12.002 13.6251 13.625 12.0022 13.625 10.0001H12.625C12.625 11.4499 11.4497 12.6251 10 12.6251V13.6251ZM6.375 10.0001C6.375 12.0022 7.99797 13.6251 10 13.6251V12.6251C8.55025 12.6251 7.375 11.4499 7.375 10.0001H6.375ZM10 6.37512C7.99797 6.37512 6.375 7.99809 6.375 10.0001H7.375C7.375 8.55037 8.55025 7.37512 10 7.37512V6.37512ZM13.625 10.0001C13.625 7.99809 12.002 6.37512 10 6.37512V7.37512C11.4497 7.37512 12.625 8.55037 12.625 10.0001H13.625Z" fill="black"/>
</svg>
