<svg width="20" height="20" viewBox="0 0 20 20" fill="none" xmlns="http://www.w3.org/2000/svg">
<path fill-rule="evenodd" clip-rule="evenodd" d="M1.25 10C1.25 10 3.75 4.37439 10 4.37439C16.25 4.37439 18.75 10 18.75 10C18.75 10 16.25 15.6244 10 15.6244C3.75 15.6244 1.25 10 1.25 10ZM7.5 10.0001C7.5 8.61941 8.61929 7.50012 10 7.50012C11.3807 7.50012 12.5 8.61941 12.5 10.0001C12.5 11.3808 11.3807 12.5001 10 12.5001C8.61929 12.5001 7.5 11.3808 7.5 10.0001ZM10 6.25012C7.92893 6.25012 6.25 7.92905 6.25 10.0001C6.25 12.0712 7.92893 13.7501 10 13.7501C12.0711 13.7501 13.75 12.0712 13.75 10.0001C13.75 7.92905 12.0711 6.25012 10 6.25012Z" fill="black"/>
</svg>
